<svg width="864" height="115" xmlns="http://www.w3.org/2000/svg" xmlns:xlink="http://www.w3.org/1999/xlink" overflow="hidden"><defs><clipPath id="clip0"><rect x="0" y="0" width="864" height="115"/></clipPath></defs><g clip-path="url(#clip0)"><rect x="0" y="0" width="864" height="114.856" fill="#EFF8FB"/><path d="M7.49997 56.2629C7.49997 50.8388 11.9026 46.4417 17.3335 46.4417L159.666 46.4417C165.097 46.4417 169.5 50.8388 169.5 56.2629L169.5 95.5464C169.5 100.97 165.097 105.368 159.666 105.368L17.3335 105.368C11.9026 105.368 7.49997 100.97 7.49997 95.5464Z" stroke="#042433" stroke-width="0.666538" stroke-miterlimit="8" fill="#168CEE" fill-rule="evenodd"/><text font-family="Aptos Light,Aptos Light_MSFontService,sans-serif" font-weight="300" font-size="14" transform="matrix(1 0 0 0.998745 64.7535 80)">Dataset</text><path d="M179.5 56.2629C179.5 50.8388 183.903 46.4417 189.334 46.4417L331.666 46.4417C337.097 46.4417 341.5 50.8388 341.5 56.2629L341.5 95.5464C341.5 100.97 337.097 105.368 331.666 105.368L189.334 105.368C183.903 105.368 179.5 100.97 179.5 95.5464Z" stroke="#042433" stroke-width="0.666538" stroke-miterlimit="8" fill="#7F7F7F" fill-rule="evenodd"/><text fill="#FFFFFF" font-family="Aptos Light,Aptos Light_MSFontService,sans-serif" font-weight="300" font-size="14" transform="matrix(1 0 0 0.998745 243.963 80)">Code</text><path d="M351.5 56.2629C351.5 50.8388 355.903 46.4417 361.334 46.4417L503.666 46.4417C509.097 46.4417 513.5 50.8388 513.5 56.2629L513.5 95.5464C513.5 100.97 509.097 105.368 503.666 105.368L361.334 105.368C355.903 105.368 351.5 100.97 351.5 95.5464Z" stroke="#042433" stroke-width="0.666538" stroke-miterlimit="8" fill="#0CA487" fill-rule="evenodd"/><text font-family="Aptos Light,Aptos Light_MSFontService,sans-serif" font-weight="300" font-size="14" transform="matrix(1 0 0 0.998745 413.657 80)">Model</text><path d="M523.5 56.2629C523.5 50.8388 527.903 46.4417 533.333 46.4417L675.666 46.4417C681.097 46.4417 685.5 50.8388 685.5 56.2629L685.5 95.5464C685.5 100.97 681.097 105.368 675.666 105.368L533.333 105.368C527.903 105.368 523.5 100.97 523.5 95.5464Z" stroke="#042433" stroke-width="0.666538" stroke-miterlimit="8" fill="#0CA487" fill-rule="evenodd" fill-opacity="0.65098"/><text font-family="Aptos Light,Aptos Light_MSFontService,sans-serif" font-weight="300" font-size="14" transform="matrix(1 0 0 0.998745 545.459 80)">(Hyper</text><text font-family="Aptos Light,Aptos Light_MSFontService,sans-serif" font-weight="300" font-size="14" transform="matrix(1 0 0 0.998745 584.618 80)">-</text><text font-family="Aptos Light,Aptos Light_MSFontService,sans-serif" font-weight="300" font-size="14" transform="matrix(1 0 0 0.998745 589.451 80)">)Parameters</text><path d="M694.5 56.2629C694.5 50.8388 698.903 46.4417 704.334 46.4417L846.666 46.4417C852.097 46.4417 856.5 50.8388 856.5 56.2629L856.5 95.5462C856.5 100.97 852.097 105.367 846.666 105.367L704.334 105.367C698.903 105.367 694.5 100.97 694.5 95.5462Z" stroke="#042433" stroke-width="0.666538" stroke-miterlimit="8" fill="#074D25" fill-rule="evenodd" fill-opacity="0.721569"/><text fill="#FFFFFF" font-family="Aptos Light,Aptos Light_MSFontService,sans-serif" font-weight="300" font-size="14" transform="matrix(1 0 0 0.998745 753.142 80)">Results</text><text font-family="Aptos,Aptos_MSFontService,sans-serif" font-weight="400" font-size="16" transform="matrix(1 0 0 0.998745 16.878 29)">Legend</text></g></svg>